<svg width="40" height="41" viewBox="0 0 40 41" fill="none" xmlns="http://www.w3.org/2000/svg">
<path d="M0 20.1904C0 9.14474 8.95431 0.19043 20 0.19043C31.0457 0.19043 40 9.14474 40 20.1904C40 31.2361 31.0457 40.1904 20 40.1904C8.95431 40.1904 0 31.2361 0 20.1904Z" fill="#469D41"/>
<path d="M20.0618 17.4325C20.0618 17.4325 15.3613 12.0257 20.2741 7C20.2738 7 24.8806 12.258 20.0618 17.4325Z" fill="#56B300"/>
<path d="M24.7039 17.9679C24.7039 17.9679 24.7041 14.1966 28.8575 12.6536C28.8575 12.6536 25.9682 10.9396 22.8982 13.5109C19.8279 16.0821 21.4534 20.7105 21.4534 20.7105L24.7039 17.9679Z" fill="#56B300"/>
<path d="M22.6848 16.5482C22.6848 16.5482 22.6851 12.2275 27.4438 10.46C27.4438 10.46 24.1335 8.49584 20.6156 11.4419C17.0982 14.388 18.9603 19.6906 18.9603 19.6906L22.6848 16.5482Z" fill="#008218"/>
<path d="M15.1536 17.9679C15.1536 17.9679 15.1534 14.1966 11 12.6536C11 12.6536 13.889 10.9396 16.9593 13.5109C20.0296 16.0819 18.4041 20.7102 18.4041 20.7102L15.1536 17.9679Z" fill="#56B300"/>
<path d="M17.1721 16.5482C17.1721 16.5482 17.1718 12.2275 12.4131 10.46C12.4131 10.46 15.7234 8.49584 19.2413 11.4419C22.7587 14.388 20.8966 19.6906 20.8966 19.6906L17.1721 16.5482Z" fill="#008218"/>
<path d="M26.5952 25.7365C26.5952 29.1957 23.6409 32 19.9965 32H19.8741C16.2297 32 13.2754 29.1957 13.2754 25.7365V21.9017C13.2754 18.4425 16.2295 15.6382 19.8741 15.6382H19.9965C23.6409 15.6382 26.5952 18.4425 26.5952 21.9017V25.7365Z" fill="#FF9600"/>
</svg>
