<svg width="40" height="41" viewBox="0 0 40 41" fill="none" xmlns="http://www.w3.org/2000/svg">
<path d="M0 20.1904C0 9.14474 8.95431 0.19043 20 0.19043C31.0457 0.19043 40 9.14474 40 20.1904C40 31.2361 31.0457 40.1904 20 40.1904C8.95431 40.1904 0 31.2361 0 20.1904Z" fill="#3B4558"/>
<path d="M20.0264 15.4798C20.0264 15.4798 13.8696 10.8658 20.0263 3.93726C20.0263 3.93726 26.0653 8.34616 20.0264 15.4798Z" fill="#008218"/>
<path d="M25.7295 16.078C25.7295 16.078 25.7298 11.061 30.8003 9.00839C30.8003 9.00839 27.273 6.72824 23.525 10.1488C19.7768 13.5694 21.7612 19.7265 21.7612 19.7265L25.7295 16.078Z" fill="#008218"/>
<path d="M14.0708 16.078C14.0708 16.078 14.0705 11.061 9 9.00839C9 9.00839 12.527 6.72824 16.2753 10.1488C20.0236 13.569 18.0391 19.7262 18.0391 19.7262L14.0708 16.078Z" fill="#008218"/>
<path d="M23.2654 14.1893C23.2654 14.1893 23.2658 8.44142 29.0753 6.09004C29.0753 6.09004 25.034 3.47714 20.7393 7.39633C16.4451 11.3155 18.7185 18.3697 18.7185 18.3697L23.2654 14.1893Z" fill="#56B300"/>
<path d="M16.5345 14.1893C16.5345 14.1893 16.5342 8.44142 10.7246 6.09004C10.7246 6.09004 14.7659 3.47714 19.0607 7.39633C23.3548 11.3155 21.0815 18.3697 21.0815 18.3697L16.5345 14.1893Z" fill="#56B300"/>
<path d="M11.8697 21.3112C11.8697 16.7094 15.4764 12.9788 19.9255 12.9788H20.075C24.5241 12.9788 28.1309 16.7094 28.1309 21.3112V26.4127C28.1309 31.0146 24.5245 34.7451 20.075 34.7451H19.9255C15.4764 34.7451 11.8697 31.0146 11.8697 26.4127V21.3112Z" fill="#FF9600"/>
<path fill-rule="evenodd" clip-rule="evenodd" d="M15.1881 14.5706C17.0022 16.0183 18.4597 17.6524 19.5299 19.4884C17.6429 20.2711 15.2769 20.6861 11.8929 20.666C11.8772 20.8788 11.8691 21.094 11.8691 21.311V22.5381C15.4925 22.5609 18.1624 22.1076 20.3742 21.1641C20.4599 21.364 20.5416 21.5661 20.619 21.7703C20.9565 22.6602 21.2173 23.5979 21.3956 24.5858C20.6122 24.815 19.8675 25.0789 19.1575 25.3785C16.5653 26.4721 14.4739 28.0248 12.6689 30.0364C12.9488 30.635 13.2959 31.1936 13.7001 31.7019C15.4271 29.6654 17.4028 28.1506 19.8852 27.1033C20.4385 26.8699 21.0191 26.6588 21.6301 26.4701C21.8032 28.9085 21.5136 31.6256 20.6906 34.6522L20.8803 34.7038C21.5179 34.6383 22.1336 34.4959 22.7187 34.2857C23.4532 31.2851 23.6933 28.5231 23.4699 25.99C24.8689 25.6864 26.4129 25.48 28.1303 25.3713V23.4956C26.3458 23.6037 24.7149 23.8132 23.2154 24.13C23.0185 23.0797 22.7357 22.0722 22.3694 21.1065C22.2674 20.8375 22.1591 20.5723 22.0447 20.3107C23.7145 19.3062 25.1243 17.9766 26.5791 16.3945C26.2137 15.8781 25.7921 15.4068 25.3238 14.9903C23.9207 16.5296 22.6656 17.7317 21.199 18.6346C20.1103 16.741 18.6684 15.0606 16.9242 13.5759C16.3035 13.8338 15.7211 14.1692 15.1881 14.5706Z" fill="#D5810B"/>
</svg>
