<svg width="25" height="24" viewBox="0 0 25 24" fill="none" xmlns="http://www.w3.org/2000/svg">
<path fill-rule="evenodd" clip-rule="evenodd" d="M13.6201 13.12C11.6761 15.064 8.52414 15.064 6.5801 13.12C4.63606 11.176 4.63606 8.02404 6.5801 6.08C8.52414 4.13596 11.6761 4.13596 13.6201 6.08C15.5641 8.02404 15.5641 11.176 13.6201 13.12ZM14.218 14.9976C11.5567 17.0332 7.73412 16.834 5.3001 14.4C2.64913 11.749 2.64913 7.45097 5.3001 4.8C7.95106 2.14903 12.2491 2.14903 14.9001 4.8C17.334 7.23392 17.5333 11.0563 15.4979 13.7175L20.3403 18.5598L19.0603 19.8398L14.218 14.9976Z" fill="#2E2E38"/>
</svg>
