<svg width="28" height="33" viewBox="0 0 28 33" fill="none" xmlns="http://www.w3.org/2000/svg">
<path fill-rule="evenodd" clip-rule="evenodd" d="M27.667 2.19043C27.667 1.08586 26.7716 0.19043 25.667 0.19043H2.00033C0.89576 0.19043 0.000329971 1.08586 0.000329971 2.19043C0.000329971 3.295 0.89576 4.19043 2.00033 4.19043H25.667C26.7716 4.19043 27.667 3.295 27.667 2.19043ZM19.0003 16.1904C19.0003 15.0859 18.1049 14.1904 17.0003 14.1904H2.00033C0.89576 14.1904 0.000329971 15.0859 0.000329971 16.1904C0.000329971 17.295 0.89576 18.1904 2.00033 18.1904H17.0003C18.1049 18.1904 19.0003 17.295 19.0003 16.1904ZM19.0003 30.1904C19.0003 29.0859 18.1049 28.1904 17.0003 28.1904H2.00033C0.89576 28.1904 0.000329971 29.0859 0.000329971 30.1904C0.000329971 31.295 0.89576 32.1904 2.00033 32.1904H17.0003C18.1049 32.1904 19.0003 31.295 19.0003 30.1904Z" fill="#ABABAF"/>
</svg>
