<svg width="101" height="101" viewBox="0 0 101 101" fill="none" xmlns="http://www.w3.org/2000/svg">
<path d="M50.7156 37.0304C50.7156 37.0304 30.2684 22.5246 50.7151 0.741943C50.7151 0.741943 70.771 14.603 50.7156 37.0304Z" fill="#008218"/>
<path d="M70.0325 39.3513C70.0325 39.3513 70.0336 23.0054 87.3195 16.3179C87.3195 16.3179 75.2945 8.88902 62.5173 20.0334C49.739 31.1778 56.5042 51.2381 56.5042 51.2381L70.0325 39.3513Z" fill="#008218"/>
<path d="M61.6309 33.1978C61.6309 33.1978 61.632 14.4708 81.4374 6.80989C81.4374 6.80989 67.6603 -1.70312 53.019 11.0659C38.3798 23.8348 46.1298 46.8177 46.1298 46.8177L61.6309 33.1978Z" fill="#56B300"/>
<path d="M30.287 39.3513C30.287 39.3513 30.2859 23.0054 13 16.3179C13 16.3179 25.0239 8.88902 37.8022 20.0334C50.5804 31.1767 43.8152 51.237 43.8152 51.237L30.287 39.3513Z" fill="#008218"/>
<path d="M38.6874 33.1978C38.6874 33.1978 38.6863 14.4708 18.8809 6.80989C18.8809 6.80989 32.658 -1.70312 47.2993 11.0659C61.9385 23.8348 54.1885 46.8177 54.1885 46.8177L38.6874 33.1978Z" fill="#56B300"/>
<path d="M22.7829 56.4007C22.7829 41.4076 35.0785 29.2532 50.2459 29.2532H50.7557C65.9231 29.2532 78.2188 41.4076 78.2188 56.4007V73.0217C78.2188 88.0148 65.9242 100.169 50.7557 100.169H50.2459C35.0785 100.169 22.7829 88.0148 22.7829 73.0217V56.4007Z" fill="#FF9600"/>
<path fill-rule="evenodd" clip-rule="evenodd" d="M33.3476 34.9988C39.2414 39.4443 44.0106 44.4208 47.585 49.9652C41.4487 52.2064 33.7577 53.404 22.9538 53.3491C22.8404 54.3508 22.7822 55.3691 22.7822 56.4008V61.3493C34.8343 61.4212 43.8581 60.023 51.3781 57.0832C51.5497 57.4832 51.716 57.8858 51.8768 58.291C52.8937 60.8536 53.7031 63.5442 54.2895 66.3695C51.8822 67.0696 49.58 67.8631 47.3734 68.7528C38.4965 72.332 31.312 77.4093 25.1098 83.9762C26.246 86.5199 27.7657 88.8587 29.5965 90.9208C35.3963 84.3893 42.0248 79.5352 50.365 76.1724C51.9482 75.534 53.599 74.947 55.3241 74.4116C55.7351 81.9245 54.7315 90.2783 52.0871 99.5727L53.6573 100.019C56.1152 99.7643 58.4765 99.1887 60.6976 98.3357C63.0215 89.035 63.8347 80.4054 63.2101 72.4305C67.7338 71.5334 72.7085 70.9158 78.2181 70.581V62.5669C72.3869 62.9028 67.0263 63.5416 62.0727 64.5012C61.401 61.3331 60.4792 58.2798 59.3127 55.3403C59.0745 54.74 58.8264 54.1454 58.5687 53.5564C64.0158 50.2931 68.6804 46.061 73.4489 41.1075C71.9224 38.8983 70.0744 36.9235 67.9715 35.2489C63.4706 39.9585 59.4489 43.6484 54.8391 46.4668C51.2243 40.6415 46.5523 35.449 40.9804 30.8369C38.2016 31.8211 35.63 33.2355 33.3476 34.9988Z" fill="#D5810B"/>
</svg>
