<svg width="101" height="102" viewBox="0 0 101 102" fill="none" xmlns="http://www.w3.org/2000/svg">
<path d="M51.0106 42.3506C51.0106 42.3506 33.0126 20.5406 51.8236 0.267578C51.8226 0.267578 69.4616 21.4776 51.0106 42.3506Z" fill="#56B300"/>
<path d="M68.7827 44.5109C68.7827 44.5109 68.7837 29.2979 84.6867 23.0739C84.6867 23.0739 73.6237 16.1599 61.8687 26.5319C50.1127 36.9039 56.3367 55.5739 56.3367 55.5739L68.7827 44.5109Z" fill="#56B300"/>
<path d="M61.053 38.7839C61.053 38.7839 61.054 21.3549 79.275 14.2249C79.275 14.2249 66.6 6.30189 53.13 18.1859C39.662 30.0699 46.792 51.4599 46.792 51.4599L61.053 38.7839Z" fill="#008218"/>
<path d="M32.2165 44.5109C32.2165 44.5109 32.2155 29.2979 16.3125 23.0739C16.3125 23.0739 27.3745 16.1599 39.1305 26.5319C50.8865 36.9029 44.6625 55.5729 44.6625 55.5729L32.2165 44.5109Z" fill="#56B300"/>
<path d="M39.9447 38.7839C39.9447 38.7839 39.9437 21.3549 21.7227 14.2249C21.7227 14.2249 34.3977 6.30189 47.8677 18.1859C61.3357 30.0699 54.2057 51.4599 54.2057 51.4599L39.9447 38.7839Z" fill="#008218"/>
<path d="M76.0264 75.8473C76.0264 89.8013 64.7144 101.113 50.7604 101.113H50.2914C36.3374 101.113 25.0254 89.8013 25.0254 75.8473V60.3783C25.0254 46.4243 36.3364 35.1123 50.2914 35.1123H50.7604C64.7144 35.1123 76.0264 46.4243 76.0264 60.3783V75.8473Z" fill="#FF9600"/>
</svg>
